G04 #@! TF.GenerationSoftware,KiCad,Pcbnew,9.0.1*
G04 #@! TF.CreationDate,2025-09-23T20:38:02+02:00*
G04 #@! TF.ProjectId,kostka-smd,6b6f7374-6b61-42d7-936d-642e6b696361,1*
G04 #@! TF.SameCoordinates,Original*
G04 #@! TF.FileFunction,Legend,Bot*
G04 #@! TF.FilePolarity,Positive*
%FSLAX46Y46*%
G04 Gerber Fmt 4.6, Leading zero omitted, Abs format (unit mm)*
G04 Created by KiCad (PCBNEW 9.0.1) date 2025-09-23 20:38:02*
%MOMM*%
%LPD*%
G01*
G04 APERTURE LIST*
%ADD10C,0.300000*%
%ADD11R,1.800000X1.800000*%
%ADD12C,1.800000*%
%ADD13R,1.700000X1.700000*%
%ADD14C,1.700000*%
G04 APERTURE END LIST*
D10*
X177116917Y-99806304D02*
X176735965Y-101139638D01*
X176735965Y-101139638D02*
X176355012Y-100187257D01*
X176355012Y-100187257D02*
X175974060Y-101139638D01*
X175974060Y-101139638D02*
X175593108Y-99806304D01*
X175021679Y-99806304D02*
X174640727Y-101139638D01*
X174640727Y-101139638D02*
X174259774Y-100187257D01*
X174259774Y-100187257D02*
X173878822Y-101139638D01*
X173878822Y-101139638D02*
X173497870Y-99806304D01*
X172926441Y-99806304D02*
X172545489Y-101139638D01*
X172545489Y-101139638D02*
X172164536Y-100187257D01*
X172164536Y-100187257D02*
X171783584Y-101139638D01*
X171783584Y-101139638D02*
X171402632Y-99806304D01*
X170640727Y-100949161D02*
X170545489Y-101044400D01*
X170545489Y-101044400D02*
X170640727Y-101139638D01*
X170640727Y-101139638D02*
X170735965Y-101044400D01*
X170735965Y-101044400D02*
X170640727Y-100949161D01*
X170640727Y-100949161D02*
X170640727Y-101139638D01*
X168926441Y-101044400D02*
X169116917Y-101139638D01*
X169116917Y-101139638D02*
X169497870Y-101139638D01*
X169497870Y-101139638D02*
X169688346Y-101044400D01*
X169688346Y-101044400D02*
X169783584Y-100853923D01*
X169783584Y-100853923D02*
X169783584Y-100092019D01*
X169783584Y-100092019D02*
X169688346Y-99901542D01*
X169688346Y-99901542D02*
X169497870Y-99806304D01*
X169497870Y-99806304D02*
X169116917Y-99806304D01*
X169116917Y-99806304D02*
X168926441Y-99901542D01*
X168926441Y-99901542D02*
X168831203Y-100092019D01*
X168831203Y-100092019D02*
X168831203Y-100282495D01*
X168831203Y-100282495D02*
X169783584Y-100472971D01*
X167688346Y-101139638D02*
X167878822Y-101044400D01*
X167878822Y-101044400D02*
X167974060Y-100853923D01*
X167974060Y-100853923D02*
X167974060Y-99139638D01*
X166164536Y-101044400D02*
X166355012Y-101139638D01*
X166355012Y-101139638D02*
X166735965Y-101139638D01*
X166735965Y-101139638D02*
X166926441Y-101044400D01*
X166926441Y-101044400D02*
X167021679Y-100853923D01*
X167021679Y-100853923D02*
X167021679Y-100092019D01*
X167021679Y-100092019D02*
X166926441Y-99901542D01*
X166926441Y-99901542D02*
X166735965Y-99806304D01*
X166735965Y-99806304D02*
X166355012Y-99806304D01*
X166355012Y-99806304D02*
X166164536Y-99901542D01*
X166164536Y-99901542D02*
X166069298Y-100092019D01*
X166069298Y-100092019D02*
X166069298Y-100282495D01*
X166069298Y-100282495D02*
X167021679Y-100472971D01*
X165212155Y-101139638D02*
X165212155Y-99139638D01*
X165021679Y-100377733D02*
X164450250Y-101139638D01*
X164450250Y-99806304D02*
X165212155Y-100568209D01*
X163878821Y-99806304D02*
X163116917Y-99806304D01*
X163593107Y-99139638D02*
X163593107Y-100853923D01*
X163593107Y-100853923D02*
X163497869Y-101044400D01*
X163497869Y-101044400D02*
X163307393Y-101139638D01*
X163307393Y-101139638D02*
X163116917Y-101139638D01*
X162450250Y-101139638D02*
X162450250Y-99806304D01*
X162450250Y-100187257D02*
X162355012Y-99996780D01*
X162355012Y-99996780D02*
X162259774Y-99901542D01*
X162259774Y-99901542D02*
X162069298Y-99806304D01*
X162069298Y-99806304D02*
X161878821Y-99806304D01*
X160926441Y-101139638D02*
X161116917Y-101044400D01*
X161116917Y-101044400D02*
X161212155Y-100949161D01*
X161212155Y-100949161D02*
X161307393Y-100758685D01*
X161307393Y-100758685D02*
X161307393Y-100187257D01*
X161307393Y-100187257D02*
X161212155Y-99996780D01*
X161212155Y-99996780D02*
X161116917Y-99901542D01*
X161116917Y-99901542D02*
X160926441Y-99806304D01*
X160926441Y-99806304D02*
X160640726Y-99806304D01*
X160640726Y-99806304D02*
X160450250Y-99901542D01*
X160450250Y-99901542D02*
X160355012Y-99996780D01*
X160355012Y-99996780D02*
X160259774Y-100187257D01*
X160259774Y-100187257D02*
X160259774Y-100758685D01*
X160259774Y-100758685D02*
X160355012Y-100949161D01*
X160355012Y-100949161D02*
X160450250Y-101044400D01*
X160450250Y-101044400D02*
X160640726Y-101139638D01*
X160640726Y-101139638D02*
X160926441Y-101139638D01*
X159402631Y-101139638D02*
X159402631Y-99139638D01*
X159212155Y-100377733D02*
X158640726Y-101139638D01*
X158640726Y-99806304D02*
X159402631Y-100568209D01*
X157783583Y-101139638D02*
X157783583Y-99806304D01*
X157783583Y-100187257D02*
X157688345Y-99996780D01*
X157688345Y-99996780D02*
X157593107Y-99901542D01*
X157593107Y-99901542D02*
X157402631Y-99806304D01*
X157402631Y-99806304D02*
X157212154Y-99806304D01*
X156259774Y-101139638D02*
X156450250Y-101044400D01*
X156450250Y-101044400D02*
X156545488Y-100949161D01*
X156545488Y-100949161D02*
X156640726Y-100758685D01*
X156640726Y-100758685D02*
X156640726Y-100187257D01*
X156640726Y-100187257D02*
X156545488Y-99996780D01*
X156545488Y-99996780D02*
X156450250Y-99901542D01*
X156450250Y-99901542D02*
X156259774Y-99806304D01*
X156259774Y-99806304D02*
X155974059Y-99806304D01*
X155974059Y-99806304D02*
X155783583Y-99901542D01*
X155783583Y-99901542D02*
X155688345Y-99996780D01*
X155688345Y-99996780D02*
X155593107Y-100187257D01*
X155593107Y-100187257D02*
X155593107Y-100758685D01*
X155593107Y-100758685D02*
X155688345Y-100949161D01*
X155688345Y-100949161D02*
X155783583Y-101044400D01*
X155783583Y-101044400D02*
X155974059Y-101139638D01*
X155974059Y-101139638D02*
X156259774Y-101139638D01*
X153878821Y-99806304D02*
X153878821Y-101139638D01*
X154735964Y-99806304D02*
X154735964Y-100853923D01*
X154735964Y-100853923D02*
X154640726Y-101044400D01*
X154640726Y-101044400D02*
X154450250Y-101139638D01*
X154450250Y-101139638D02*
X154164535Y-101139638D01*
X154164535Y-101139638D02*
X153974059Y-101044400D01*
X153974059Y-101044400D02*
X153878821Y-100949161D01*
X153116916Y-99806304D02*
X152069297Y-99806304D01*
X152069297Y-99806304D02*
X153116916Y-101139638D01*
X153116916Y-101139638D02*
X152069297Y-101139638D01*
X150545487Y-101044400D02*
X150735963Y-101139638D01*
X150735963Y-101139638D02*
X151116916Y-101139638D01*
X151116916Y-101139638D02*
X151307392Y-101044400D01*
X151307392Y-101044400D02*
X151402630Y-100853923D01*
X151402630Y-100853923D02*
X151402630Y-100092019D01*
X151402630Y-100092019D02*
X151307392Y-99901542D01*
X151307392Y-99901542D02*
X151116916Y-99806304D01*
X151116916Y-99806304D02*
X150735963Y-99806304D01*
X150735963Y-99806304D02*
X150545487Y-99901542D01*
X150545487Y-99901542D02*
X150450249Y-100092019D01*
X150450249Y-100092019D02*
X150450249Y-100282495D01*
X150450249Y-100282495D02*
X151402630Y-100472971D01*
X149593106Y-101139638D02*
X149593106Y-99139638D01*
X149402630Y-100377733D02*
X148831201Y-101139638D01*
X148831201Y-99806304D02*
X149593106Y-100568209D01*
X147974058Y-100949161D02*
X147878820Y-101044400D01*
X147878820Y-101044400D02*
X147974058Y-101139638D01*
X147974058Y-101139638D02*
X148069296Y-101044400D01*
X148069296Y-101044400D02*
X147974058Y-100949161D01*
X147974058Y-100949161D02*
X147974058Y-101139638D01*
X146164534Y-101044400D02*
X146355010Y-101139638D01*
X146355010Y-101139638D02*
X146735963Y-101139638D01*
X146735963Y-101139638D02*
X146926439Y-101044400D01*
X146926439Y-101044400D02*
X147021677Y-100949161D01*
X147021677Y-100949161D02*
X147116915Y-100758685D01*
X147116915Y-100758685D02*
X147116915Y-100187257D01*
X147116915Y-100187257D02*
X147021677Y-99996780D01*
X147021677Y-99996780D02*
X146926439Y-99901542D01*
X146926439Y-99901542D02*
X146735963Y-99806304D01*
X146735963Y-99806304D02*
X146355010Y-99806304D01*
X146355010Y-99806304D02*
X146164534Y-99901542D01*
X145497867Y-99806304D02*
X144450248Y-99806304D01*
X144450248Y-99806304D02*
X145497867Y-101139638D01*
X145497867Y-101139638D02*
X144450248Y-101139638D01*
%LPC*%
D11*
X172930000Y-87200000D03*
D12*
X175470000Y-87200000D03*
D11*
X183330000Y-92400000D03*
D12*
X185870000Y-92400000D03*
D11*
X172930000Y-97600000D03*
D12*
X175470000Y-97600000D03*
D11*
X183330000Y-87200000D03*
D12*
X185870000Y-87200000D03*
D13*
X157450000Y-81400000D03*
D14*
X159990000Y-81400000D03*
X162530000Y-81400000D03*
X165070000Y-81400000D03*
X167610000Y-81400000D03*
X170150000Y-81400000D03*
D11*
X172930000Y-92400000D03*
D12*
X175470000Y-92400000D03*
D11*
X183330000Y-97600000D03*
D12*
X185870000Y-97600000D03*
D11*
X178130000Y-92400000D03*
D12*
X180670000Y-92400000D03*
%LPD*%
M02*
