M48
; DRILL file {KiCad 9.0.1} date 2025-09-23T20:33:17+0200
; FORMAT={-:-/ absolute / metric / decimal}
; #@! TF.CreationDate,2025-09-23T20:33:17+02:00
; #@! TF.GenerationSoftware,Kicad,Pcbnew,9.0.1
; #@! TF.FileFunction,Plated,1,2,PTH
FMAT,2
METRIC
; #@! TA.AperFunction,Plated,PTH,ViaDrill
T1C0.300
; #@! TA.AperFunction,Plated,PTH,ComponentDrill
T2C0.900
; #@! TA.AperFunction,Plated,PTH,ComponentDrill
T3C1.000
%
G90
G05
T1
X149.732Y-101.8
X154.4Y-103.0
X155.4Y-91.0
X158.42Y-100.6
X161.0Y-84.0
X163.6Y-84.0
X163.8Y-85.4
X164.4Y-95.4
X165.2Y-87.0
X165.4Y-95.4
X166.0Y-94.4
X166.2Y-88.2
T2
X172.93Y-87.2
X172.93Y-92.4
X172.93Y-97.6
X175.47Y-87.2
X175.47Y-92.4
X175.47Y-97.6
X178.13Y-92.4
X180.67Y-92.4
X183.33Y-87.2
X183.33Y-92.4
X183.33Y-97.6
X185.87Y-87.2
X185.87Y-92.4
X185.87Y-97.6
T3
X157.45Y-81.4
X159.99Y-81.4
X162.53Y-81.4
X165.07Y-81.4
X167.61Y-81.4
X170.15Y-81.4
M30
