G04 #@! TF.GenerationSoftware,KiCad,Pcbnew,9.0.1*
G04 #@! TF.CreationDate,2025-09-23T20:38:02+02:00*
G04 #@! TF.ProjectId,kostka-smd,6b6f7374-6b61-42d7-936d-642e6b696361,1*
G04 #@! TF.SameCoordinates,Original*
G04 #@! TF.FileFunction,Legend,Top*
G04 #@! TF.FilePolarity,Positive*
%FSLAX46Y46*%
G04 Gerber Fmt 4.6, Leading zero omitted, Abs format (unit mm)*
G04 Created by KiCad (PCBNEW 9.0.1) date 2025-09-23 20:38:02*
%MOMM*%
%LPD*%
G01*
G04 APERTURE LIST*
G04 Aperture macros list*
%AMRoundRect*
0 Rectangle with rounded corners*
0 $1 Rounding radius*
0 $2 $3 $4 $5 $6 $7 $8 $9 X,Y pos of 4 corners*
0 Add a 4 corners polygon primitive as box body*
4,1,4,$2,$3,$4,$5,$6,$7,$8,$9,$2,$3,0*
0 Add four circle primitives for the rounded corners*
1,1,$1+$1,$2,$3*
1,1,$1+$1,$4,$5*
1,1,$1+$1,$6,$7*
1,1,$1+$1,$8,$9*
0 Add four rect primitives between the rounded corners*
20,1,$1+$1,$2,$3,$4,$5,0*
20,1,$1+$1,$4,$5,$6,$7,0*
20,1,$1+$1,$6,$7,$8,$9,0*
20,1,$1+$1,$8,$9,$2,$3,0*%
G04 Aperture macros list end*
%ADD10C,0.100000*%
%ADD11C,0.240000*%
%ADD12C,0.150000*%
%ADD13C,0.120000*%
%ADD14RoundRect,0.250000X0.625000X-0.400000X0.625000X0.400000X-0.625000X0.400000X-0.625000X-0.400000X0*%
%ADD15RoundRect,0.150000X-0.825000X-0.150000X0.825000X-0.150000X0.825000X0.150000X-0.825000X0.150000X0*%
%ADD16RoundRect,0.250000X0.400000X0.625000X-0.400000X0.625000X-0.400000X-0.625000X0.400000X-0.625000X0*%
%ADD17RoundRect,0.200000X0.200000X-0.750000X0.200000X0.750000X-0.200000X0.750000X-0.200000X-0.750000X0*%
%ADD18RoundRect,0.250000X-0.400000X-0.625000X0.400000X-0.625000X0.400000X0.625000X-0.400000X0.625000X0*%
%ADD19R,1.800000X1.800000*%
%ADD20C,1.800000*%
%ADD21R,1.550000X1.300000*%
%ADD22RoundRect,0.200000X-0.200000X0.750000X-0.200000X-0.750000X0.200000X-0.750000X0.200000X0.750000X0*%
%ADD23R,1.700000X1.700000*%
%ADD24C,1.700000*%
%ADD25RoundRect,0.600000X1.400000X-1.400000X1.400000X1.400000X-1.400000X1.400000X-1.400000X-1.400000X0*%
%ADD26C,13.000000*%
%ADD27RoundRect,0.200000X0.750000X0.200000X-0.750000X0.200000X-0.750000X-0.200000X0.750000X-0.200000X0*%
G04 APERTURE END LIST*
D10*
X182000000Y-87600000D02*
X182000000Y-89800000D01*
X182000000Y-95200000D02*
X183000000Y-94200000D01*
X182000000Y-89800000D02*
X181000000Y-90800000D01*
X182000000Y-97000000D02*
X182000000Y-95200000D01*
X178000000Y-87600000D02*
X178000000Y-89600000D01*
X178000000Y-89600000D02*
X175995006Y-90605961D01*
X180200000Y-79600000D02*
X183000000Y-79600000D01*
X183000000Y-82000000D01*
X180200000Y-82000000D01*
X180200000Y-79600000D01*
D11*
X180915036Y-80519567D02*
X181176941Y-81252900D01*
X181176941Y-81252900D02*
X181438846Y-80519567D01*
X182434084Y-81252900D02*
X181805512Y-81252900D01*
X182119798Y-81252900D02*
X182119798Y-80152900D01*
X182119798Y-80152900D02*
X182015036Y-80310043D01*
X182015036Y-80310043D02*
X181910274Y-80414805D01*
X181910274Y-80414805D02*
X181805512Y-80467186D01*
D12*
X179433333Y-84254819D02*
X179100000Y-83778628D01*
X178861905Y-84254819D02*
X178861905Y-83254819D01*
X178861905Y-83254819D02*
X179242857Y-83254819D01*
X179242857Y-83254819D02*
X179338095Y-83302438D01*
X179338095Y-83302438D02*
X179385714Y-83350057D01*
X179385714Y-83350057D02*
X179433333Y-83445295D01*
X179433333Y-83445295D02*
X179433333Y-83588152D01*
X179433333Y-83588152D02*
X179385714Y-83683390D01*
X179385714Y-83683390D02*
X179338095Y-83731009D01*
X179338095Y-83731009D02*
X179242857Y-83778628D01*
X179242857Y-83778628D02*
X178861905Y-83778628D01*
X180290476Y-83254819D02*
X180100000Y-83254819D01*
X180100000Y-83254819D02*
X180004762Y-83302438D01*
X180004762Y-83302438D02*
X179957143Y-83350057D01*
X179957143Y-83350057D02*
X179861905Y-83492914D01*
X179861905Y-83492914D02*
X179814286Y-83683390D01*
X179814286Y-83683390D02*
X179814286Y-84064342D01*
X179814286Y-84064342D02*
X179861905Y-84159580D01*
X179861905Y-84159580D02*
X179909524Y-84207200D01*
X179909524Y-84207200D02*
X180004762Y-84254819D01*
X180004762Y-84254819D02*
X180195238Y-84254819D01*
X180195238Y-84254819D02*
X180290476Y-84207200D01*
X180290476Y-84207200D02*
X180338095Y-84159580D01*
X180338095Y-84159580D02*
X180385714Y-84064342D01*
X180385714Y-84064342D02*
X180385714Y-83826247D01*
X180385714Y-83826247D02*
X180338095Y-83731009D01*
X180338095Y-83731009D02*
X180290476Y-83683390D01*
X180290476Y-83683390D02*
X180195238Y-83635771D01*
X180195238Y-83635771D02*
X180004762Y-83635771D01*
X180004762Y-83635771D02*
X179909524Y-83683390D01*
X179909524Y-83683390D02*
X179861905Y-83731009D01*
X179861905Y-83731009D02*
X179814286Y-83826247D01*
X161038095Y-84374819D02*
X161038095Y-85184342D01*
X161038095Y-85184342D02*
X161085714Y-85279580D01*
X161085714Y-85279580D02*
X161133333Y-85327200D01*
X161133333Y-85327200D02*
X161228571Y-85374819D01*
X161228571Y-85374819D02*
X161419047Y-85374819D01*
X161419047Y-85374819D02*
X161514285Y-85327200D01*
X161514285Y-85327200D02*
X161561904Y-85279580D01*
X161561904Y-85279580D02*
X161609523Y-85184342D01*
X161609523Y-85184342D02*
X161609523Y-84374819D01*
X162038095Y-84470057D02*
X162085714Y-84422438D01*
X162085714Y-84422438D02*
X162180952Y-84374819D01*
X162180952Y-84374819D02*
X162419047Y-84374819D01*
X162419047Y-84374819D02*
X162514285Y-84422438D01*
X162514285Y-84422438D02*
X162561904Y-84470057D01*
X162561904Y-84470057D02*
X162609523Y-84565295D01*
X162609523Y-84565295D02*
X162609523Y-84660533D01*
X162609523Y-84660533D02*
X162561904Y-84803390D01*
X162561904Y-84803390D02*
X161990476Y-85374819D01*
X161990476Y-85374819D02*
X162609523Y-85374819D01*
X178224819Y-98442857D02*
X177748628Y-98776190D01*
X178224819Y-99014285D02*
X177224819Y-99014285D01*
X177224819Y-99014285D02*
X177224819Y-98633333D01*
X177224819Y-98633333D02*
X177272438Y-98538095D01*
X177272438Y-98538095D02*
X177320057Y-98490476D01*
X177320057Y-98490476D02*
X177415295Y-98442857D01*
X177415295Y-98442857D02*
X177558152Y-98442857D01*
X177558152Y-98442857D02*
X177653390Y-98490476D01*
X177653390Y-98490476D02*
X177701009Y-98538095D01*
X177701009Y-98538095D02*
X177748628Y-98633333D01*
X177748628Y-98633333D02*
X177748628Y-99014285D01*
X178224819Y-97490476D02*
X178224819Y-98061904D01*
X178224819Y-97776190D02*
X177224819Y-97776190D01*
X177224819Y-97776190D02*
X177367676Y-97871428D01*
X177367676Y-97871428D02*
X177462914Y-97966666D01*
X177462914Y-97966666D02*
X177510533Y-98061904D01*
X178224819Y-96538095D02*
X178224819Y-97109523D01*
X178224819Y-96823809D02*
X177224819Y-96823809D01*
X177224819Y-96823809D02*
X177367676Y-96919047D01*
X177367676Y-96919047D02*
X177462914Y-97014285D01*
X177462914Y-97014285D02*
X177510533Y-97109523D01*
X168433333Y-89654819D02*
X168100000Y-89178628D01*
X167861905Y-89654819D02*
X167861905Y-88654819D01*
X167861905Y-88654819D02*
X168242857Y-88654819D01*
X168242857Y-88654819D02*
X168338095Y-88702438D01*
X168338095Y-88702438D02*
X168385714Y-88750057D01*
X168385714Y-88750057D02*
X168433333Y-88845295D01*
X168433333Y-88845295D02*
X168433333Y-88988152D01*
X168433333Y-88988152D02*
X168385714Y-89083390D01*
X168385714Y-89083390D02*
X168338095Y-89131009D01*
X168338095Y-89131009D02*
X168242857Y-89178628D01*
X168242857Y-89178628D02*
X167861905Y-89178628D01*
X169004762Y-89083390D02*
X168909524Y-89035771D01*
X168909524Y-89035771D02*
X168861905Y-88988152D01*
X168861905Y-88988152D02*
X168814286Y-88892914D01*
X168814286Y-88892914D02*
X168814286Y-88845295D01*
X168814286Y-88845295D02*
X168861905Y-88750057D01*
X168861905Y-88750057D02*
X168909524Y-88702438D01*
X168909524Y-88702438D02*
X169004762Y-88654819D01*
X169004762Y-88654819D02*
X169195238Y-88654819D01*
X169195238Y-88654819D02*
X169290476Y-88702438D01*
X169290476Y-88702438D02*
X169338095Y-88750057D01*
X169338095Y-88750057D02*
X169385714Y-88845295D01*
X169385714Y-88845295D02*
X169385714Y-88892914D01*
X169385714Y-88892914D02*
X169338095Y-88988152D01*
X169338095Y-88988152D02*
X169290476Y-89035771D01*
X169290476Y-89035771D02*
X169195238Y-89083390D01*
X169195238Y-89083390D02*
X169004762Y-89083390D01*
X169004762Y-89083390D02*
X168909524Y-89131009D01*
X168909524Y-89131009D02*
X168861905Y-89178628D01*
X168861905Y-89178628D02*
X168814286Y-89273866D01*
X168814286Y-89273866D02*
X168814286Y-89464342D01*
X168814286Y-89464342D02*
X168861905Y-89559580D01*
X168861905Y-89559580D02*
X168909524Y-89607200D01*
X168909524Y-89607200D02*
X169004762Y-89654819D01*
X169004762Y-89654819D02*
X169195238Y-89654819D01*
X169195238Y-89654819D02*
X169290476Y-89607200D01*
X169290476Y-89607200D02*
X169338095Y-89559580D01*
X169338095Y-89559580D02*
X169385714Y-89464342D01*
X169385714Y-89464342D02*
X169385714Y-89273866D01*
X169385714Y-89273866D02*
X169338095Y-89178628D01*
X169338095Y-89178628D02*
X169290476Y-89131009D01*
X169290476Y-89131009D02*
X169195238Y-89083390D01*
X156104761Y-89550057D02*
X156009523Y-89502438D01*
X156009523Y-89502438D02*
X155914285Y-89407200D01*
X155914285Y-89407200D02*
X155771428Y-89264342D01*
X155771428Y-89264342D02*
X155676190Y-89216723D01*
X155676190Y-89216723D02*
X155580952Y-89216723D01*
X155628571Y-89454819D02*
X155533333Y-89407200D01*
X155533333Y-89407200D02*
X155438095Y-89311961D01*
X155438095Y-89311961D02*
X155390476Y-89121485D01*
X155390476Y-89121485D02*
X155390476Y-88788152D01*
X155390476Y-88788152D02*
X155438095Y-88597676D01*
X155438095Y-88597676D02*
X155533333Y-88502438D01*
X155533333Y-88502438D02*
X155628571Y-88454819D01*
X155628571Y-88454819D02*
X155819047Y-88454819D01*
X155819047Y-88454819D02*
X155914285Y-88502438D01*
X155914285Y-88502438D02*
X156009523Y-88597676D01*
X156009523Y-88597676D02*
X156057142Y-88788152D01*
X156057142Y-88788152D02*
X156057142Y-89121485D01*
X156057142Y-89121485D02*
X156009523Y-89311961D01*
X156009523Y-89311961D02*
X155914285Y-89407200D01*
X155914285Y-89407200D02*
X155819047Y-89454819D01*
X155819047Y-89454819D02*
X155628571Y-89454819D01*
X156438095Y-88550057D02*
X156485714Y-88502438D01*
X156485714Y-88502438D02*
X156580952Y-88454819D01*
X156580952Y-88454819D02*
X156819047Y-88454819D01*
X156819047Y-88454819D02*
X156914285Y-88502438D01*
X156914285Y-88502438D02*
X156961904Y-88550057D01*
X156961904Y-88550057D02*
X157009523Y-88645295D01*
X157009523Y-88645295D02*
X157009523Y-88740533D01*
X157009523Y-88740533D02*
X156961904Y-88883390D01*
X156961904Y-88883390D02*
X156390476Y-89454819D01*
X156390476Y-89454819D02*
X157009523Y-89454819D01*
X157564285Y-84669771D02*
X157364285Y-84384057D01*
X157221428Y-84669771D02*
X157221428Y-84069771D01*
X157221428Y-84069771D02*
X157449999Y-84069771D01*
X157449999Y-84069771D02*
X157507142Y-84098342D01*
X157507142Y-84098342D02*
X157535713Y-84126914D01*
X157535713Y-84126914D02*
X157564285Y-84184057D01*
X157564285Y-84184057D02*
X157564285Y-84269771D01*
X157564285Y-84269771D02*
X157535713Y-84326914D01*
X157535713Y-84326914D02*
X157507142Y-84355485D01*
X157507142Y-84355485D02*
X157449999Y-84384057D01*
X157449999Y-84384057D02*
X157221428Y-84384057D01*
X158135713Y-84669771D02*
X157792856Y-84669771D01*
X157964285Y-84669771D02*
X157964285Y-84069771D01*
X157964285Y-84069771D02*
X157907142Y-84155485D01*
X157907142Y-84155485D02*
X157849999Y-84212628D01*
X157849999Y-84212628D02*
X157792856Y-84241200D01*
X158364285Y-84126914D02*
X158392857Y-84098342D01*
X158392857Y-84098342D02*
X158450000Y-84069771D01*
X158450000Y-84069771D02*
X158592857Y-84069771D01*
X158592857Y-84069771D02*
X158650000Y-84098342D01*
X158650000Y-84098342D02*
X158678571Y-84126914D01*
X158678571Y-84126914D02*
X158707142Y-84184057D01*
X158707142Y-84184057D02*
X158707142Y-84241200D01*
X158707142Y-84241200D02*
X158678571Y-84326914D01*
X158678571Y-84326914D02*
X158335714Y-84669771D01*
X158335714Y-84669771D02*
X158707142Y-84669771D01*
X149433333Y-81654819D02*
X149100000Y-81178628D01*
X148861905Y-81654819D02*
X148861905Y-80654819D01*
X148861905Y-80654819D02*
X149242857Y-80654819D01*
X149242857Y-80654819D02*
X149338095Y-80702438D01*
X149338095Y-80702438D02*
X149385714Y-80750057D01*
X149385714Y-80750057D02*
X149433333Y-80845295D01*
X149433333Y-80845295D02*
X149433333Y-80988152D01*
X149433333Y-80988152D02*
X149385714Y-81083390D01*
X149385714Y-81083390D02*
X149338095Y-81131009D01*
X149338095Y-81131009D02*
X149242857Y-81178628D01*
X149242857Y-81178628D02*
X148861905Y-81178628D01*
X150385714Y-81654819D02*
X149814286Y-81654819D01*
X150100000Y-81654819D02*
X150100000Y-80654819D01*
X150100000Y-80654819D02*
X150004762Y-80797676D01*
X150004762Y-80797676D02*
X149909524Y-80892914D01*
X149909524Y-80892914D02*
X149814286Y-80940533D01*
X164633333Y-97054819D02*
X164300000Y-96578628D01*
X164061905Y-97054819D02*
X164061905Y-96054819D01*
X164061905Y-96054819D02*
X164442857Y-96054819D01*
X164442857Y-96054819D02*
X164538095Y-96102438D01*
X164538095Y-96102438D02*
X164585714Y-96150057D01*
X164585714Y-96150057D02*
X164633333Y-96245295D01*
X164633333Y-96245295D02*
X164633333Y-96388152D01*
X164633333Y-96388152D02*
X164585714Y-96483390D01*
X164585714Y-96483390D02*
X164538095Y-96531009D01*
X164538095Y-96531009D02*
X164442857Y-96578628D01*
X164442857Y-96578628D02*
X164061905Y-96578628D01*
X165490476Y-96388152D02*
X165490476Y-97054819D01*
X165252381Y-96007200D02*
X165014286Y-96721485D01*
X165014286Y-96721485D02*
X165633333Y-96721485D01*
X173461905Y-84854819D02*
X173461905Y-83854819D01*
X173461905Y-83854819D02*
X173700000Y-83854819D01*
X173700000Y-83854819D02*
X173842857Y-83902438D01*
X173842857Y-83902438D02*
X173938095Y-83997676D01*
X173938095Y-83997676D02*
X173985714Y-84092914D01*
X173985714Y-84092914D02*
X174033333Y-84283390D01*
X174033333Y-84283390D02*
X174033333Y-84426247D01*
X174033333Y-84426247D02*
X173985714Y-84616723D01*
X173985714Y-84616723D02*
X173938095Y-84711961D01*
X173938095Y-84711961D02*
X173842857Y-84807200D01*
X173842857Y-84807200D02*
X173700000Y-84854819D01*
X173700000Y-84854819D02*
X173461905Y-84854819D01*
X174985714Y-84854819D02*
X174414286Y-84854819D01*
X174700000Y-84854819D02*
X174700000Y-83854819D01*
X174700000Y-83854819D02*
X174604762Y-83997676D01*
X174604762Y-83997676D02*
X174509524Y-84092914D01*
X174509524Y-84092914D02*
X174414286Y-84140533D01*
X150233333Y-100454819D02*
X149900000Y-99978628D01*
X149661905Y-100454819D02*
X149661905Y-99454819D01*
X149661905Y-99454819D02*
X150042857Y-99454819D01*
X150042857Y-99454819D02*
X150138095Y-99502438D01*
X150138095Y-99502438D02*
X150185714Y-99550057D01*
X150185714Y-99550057D02*
X150233333Y-99645295D01*
X150233333Y-99645295D02*
X150233333Y-99788152D01*
X150233333Y-99788152D02*
X150185714Y-99883390D01*
X150185714Y-99883390D02*
X150138095Y-99931009D01*
X150138095Y-99931009D02*
X150042857Y-99978628D01*
X150042857Y-99978628D02*
X149661905Y-99978628D01*
X150566667Y-99454819D02*
X151185714Y-99454819D01*
X151185714Y-99454819D02*
X150852381Y-99835771D01*
X150852381Y-99835771D02*
X150995238Y-99835771D01*
X150995238Y-99835771D02*
X151090476Y-99883390D01*
X151090476Y-99883390D02*
X151138095Y-99931009D01*
X151138095Y-99931009D02*
X151185714Y-100026247D01*
X151185714Y-100026247D02*
X151185714Y-100264342D01*
X151185714Y-100264342D02*
X151138095Y-100359580D01*
X151138095Y-100359580D02*
X151090476Y-100407200D01*
X151090476Y-100407200D02*
X150995238Y-100454819D01*
X150995238Y-100454819D02*
X150709524Y-100454819D01*
X150709524Y-100454819D02*
X150614286Y-100407200D01*
X150614286Y-100407200D02*
X150566667Y-100359580D01*
X181854819Y-96938094D02*
X180854819Y-96938094D01*
X180854819Y-96938094D02*
X180854819Y-96699999D01*
X180854819Y-96699999D02*
X180902438Y-96557142D01*
X180902438Y-96557142D02*
X180997676Y-96461904D01*
X180997676Y-96461904D02*
X181092914Y-96414285D01*
X181092914Y-96414285D02*
X181283390Y-96366666D01*
X181283390Y-96366666D02*
X181426247Y-96366666D01*
X181426247Y-96366666D02*
X181616723Y-96414285D01*
X181616723Y-96414285D02*
X181711961Y-96461904D01*
X181711961Y-96461904D02*
X181807200Y-96557142D01*
X181807200Y-96557142D02*
X181854819Y-96699999D01*
X181854819Y-96699999D02*
X181854819Y-96938094D01*
X180854819Y-95509523D02*
X180854819Y-95699999D01*
X180854819Y-95699999D02*
X180902438Y-95795237D01*
X180902438Y-95795237D02*
X180950057Y-95842856D01*
X180950057Y-95842856D02*
X181092914Y-95938094D01*
X181092914Y-95938094D02*
X181283390Y-95985713D01*
X181283390Y-95985713D02*
X181664342Y-95985713D01*
X181664342Y-95985713D02*
X181759580Y-95938094D01*
X181759580Y-95938094D02*
X181807200Y-95890475D01*
X181807200Y-95890475D02*
X181854819Y-95795237D01*
X181854819Y-95795237D02*
X181854819Y-95604761D01*
X181854819Y-95604761D02*
X181807200Y-95509523D01*
X181807200Y-95509523D02*
X181759580Y-95461904D01*
X181759580Y-95461904D02*
X181664342Y-95414285D01*
X181664342Y-95414285D02*
X181426247Y-95414285D01*
X181426247Y-95414285D02*
X181331009Y-95461904D01*
X181331009Y-95461904D02*
X181283390Y-95509523D01*
X181283390Y-95509523D02*
X181235771Y-95604761D01*
X181235771Y-95604761D02*
X181235771Y-95795237D01*
X181235771Y-95795237D02*
X181283390Y-95890475D01*
X181283390Y-95890475D02*
X181331009Y-95938094D01*
X181331009Y-95938094D02*
X181426247Y-95985713D01*
X174163333Y-104084819D02*
X173830000Y-103608628D01*
X173591905Y-104084819D02*
X173591905Y-103084819D01*
X173591905Y-103084819D02*
X173972857Y-103084819D01*
X173972857Y-103084819D02*
X174068095Y-103132438D01*
X174068095Y-103132438D02*
X174115714Y-103180057D01*
X174115714Y-103180057D02*
X174163333Y-103275295D01*
X174163333Y-103275295D02*
X174163333Y-103418152D01*
X174163333Y-103418152D02*
X174115714Y-103513390D01*
X174115714Y-103513390D02*
X174068095Y-103561009D01*
X174068095Y-103561009D02*
X173972857Y-103608628D01*
X173972857Y-103608628D02*
X173591905Y-103608628D01*
X174496667Y-103084819D02*
X175163333Y-103084819D01*
X175163333Y-103084819D02*
X174734762Y-104084819D01*
X161066667Y-105257200D02*
X161209524Y-105304819D01*
X161209524Y-105304819D02*
X161447619Y-105304819D01*
X161447619Y-105304819D02*
X161542857Y-105257200D01*
X161542857Y-105257200D02*
X161590476Y-105209580D01*
X161590476Y-105209580D02*
X161638095Y-105114342D01*
X161638095Y-105114342D02*
X161638095Y-105019104D01*
X161638095Y-105019104D02*
X161590476Y-104923866D01*
X161590476Y-104923866D02*
X161542857Y-104876247D01*
X161542857Y-104876247D02*
X161447619Y-104828628D01*
X161447619Y-104828628D02*
X161257143Y-104781009D01*
X161257143Y-104781009D02*
X161161905Y-104733390D01*
X161161905Y-104733390D02*
X161114286Y-104685771D01*
X161114286Y-104685771D02*
X161066667Y-104590533D01*
X161066667Y-104590533D02*
X161066667Y-104495295D01*
X161066667Y-104495295D02*
X161114286Y-104400057D01*
X161114286Y-104400057D02*
X161161905Y-104352438D01*
X161161905Y-104352438D02*
X161257143Y-104304819D01*
X161257143Y-104304819D02*
X161495238Y-104304819D01*
X161495238Y-104304819D02*
X161638095Y-104352438D01*
X161971429Y-104304819D02*
X162209524Y-105304819D01*
X162209524Y-105304819D02*
X162400000Y-104590533D01*
X162400000Y-104590533D02*
X162590476Y-105304819D01*
X162590476Y-105304819D02*
X162828572Y-104304819D01*
X163733333Y-105304819D02*
X163161905Y-105304819D01*
X163447619Y-105304819D02*
X163447619Y-104304819D01*
X163447619Y-104304819D02*
X163352381Y-104447676D01*
X163352381Y-104447676D02*
X163257143Y-104542914D01*
X163257143Y-104542914D02*
X163161905Y-104590533D01*
X169861905Y-98254819D02*
X169861905Y-97254819D01*
X169861905Y-97254819D02*
X170100000Y-97254819D01*
X170100000Y-97254819D02*
X170242857Y-97302438D01*
X170242857Y-97302438D02*
X170338095Y-97397676D01*
X170338095Y-97397676D02*
X170385714Y-97492914D01*
X170385714Y-97492914D02*
X170433333Y-97683390D01*
X170433333Y-97683390D02*
X170433333Y-97826247D01*
X170433333Y-97826247D02*
X170385714Y-98016723D01*
X170385714Y-98016723D02*
X170338095Y-98111961D01*
X170338095Y-98111961D02*
X170242857Y-98207200D01*
X170242857Y-98207200D02*
X170100000Y-98254819D01*
X170100000Y-98254819D02*
X169861905Y-98254819D01*
X171290476Y-97588152D02*
X171290476Y-98254819D01*
X171052381Y-97207200D02*
X170814286Y-97921485D01*
X170814286Y-97921485D02*
X171433333Y-97921485D01*
X183861905Y-84854819D02*
X183861905Y-83854819D01*
X183861905Y-83854819D02*
X184100000Y-83854819D01*
X184100000Y-83854819D02*
X184242857Y-83902438D01*
X184242857Y-83902438D02*
X184338095Y-83997676D01*
X184338095Y-83997676D02*
X184385714Y-84092914D01*
X184385714Y-84092914D02*
X184433333Y-84283390D01*
X184433333Y-84283390D02*
X184433333Y-84426247D01*
X184433333Y-84426247D02*
X184385714Y-84616723D01*
X184385714Y-84616723D02*
X184338095Y-84711961D01*
X184338095Y-84711961D02*
X184242857Y-84807200D01*
X184242857Y-84807200D02*
X184100000Y-84854819D01*
X184100000Y-84854819D02*
X183861905Y-84854819D01*
X185338095Y-83854819D02*
X184861905Y-83854819D01*
X184861905Y-83854819D02*
X184814286Y-84331009D01*
X184814286Y-84331009D02*
X184861905Y-84283390D01*
X184861905Y-84283390D02*
X184957143Y-84235771D01*
X184957143Y-84235771D02*
X185195238Y-84235771D01*
X185195238Y-84235771D02*
X185290476Y-84283390D01*
X185290476Y-84283390D02*
X185338095Y-84331009D01*
X185338095Y-84331009D02*
X185385714Y-84426247D01*
X185385714Y-84426247D02*
X185385714Y-84664342D01*
X185385714Y-84664342D02*
X185338095Y-84759580D01*
X185338095Y-84759580D02*
X185290476Y-84807200D01*
X185290476Y-84807200D02*
X185195238Y-84854819D01*
X185195238Y-84854819D02*
X184957143Y-84854819D01*
X184957143Y-84854819D02*
X184861905Y-84807200D01*
X184861905Y-84807200D02*
X184814286Y-84759580D01*
X150704761Y-85950057D02*
X150609523Y-85902438D01*
X150609523Y-85902438D02*
X150514285Y-85807200D01*
X150514285Y-85807200D02*
X150371428Y-85664342D01*
X150371428Y-85664342D02*
X150276190Y-85616723D01*
X150276190Y-85616723D02*
X150180952Y-85616723D01*
X150228571Y-85854819D02*
X150133333Y-85807200D01*
X150133333Y-85807200D02*
X150038095Y-85711961D01*
X150038095Y-85711961D02*
X149990476Y-85521485D01*
X149990476Y-85521485D02*
X149990476Y-85188152D01*
X149990476Y-85188152D02*
X150038095Y-84997676D01*
X150038095Y-84997676D02*
X150133333Y-84902438D01*
X150133333Y-84902438D02*
X150228571Y-84854819D01*
X150228571Y-84854819D02*
X150419047Y-84854819D01*
X150419047Y-84854819D02*
X150514285Y-84902438D01*
X150514285Y-84902438D02*
X150609523Y-84997676D01*
X150609523Y-84997676D02*
X150657142Y-85188152D01*
X150657142Y-85188152D02*
X150657142Y-85521485D01*
X150657142Y-85521485D02*
X150609523Y-85711961D01*
X150609523Y-85711961D02*
X150514285Y-85807200D01*
X150514285Y-85807200D02*
X150419047Y-85854819D01*
X150419047Y-85854819D02*
X150228571Y-85854819D01*
X151609523Y-85854819D02*
X151038095Y-85854819D01*
X151323809Y-85854819D02*
X151323809Y-84854819D01*
X151323809Y-84854819D02*
X151228571Y-84997676D01*
X151228571Y-84997676D02*
X151133333Y-85092914D01*
X151133333Y-85092914D02*
X151038095Y-85140533D01*
X172466666Y-80654819D02*
X172466666Y-81369104D01*
X172466666Y-81369104D02*
X172419047Y-81511961D01*
X172419047Y-81511961D02*
X172323809Y-81607200D01*
X172323809Y-81607200D02*
X172180952Y-81654819D01*
X172180952Y-81654819D02*
X172085714Y-81654819D01*
X172895238Y-80750057D02*
X172942857Y-80702438D01*
X172942857Y-80702438D02*
X173038095Y-80654819D01*
X173038095Y-80654819D02*
X173276190Y-80654819D01*
X173276190Y-80654819D02*
X173371428Y-80702438D01*
X173371428Y-80702438D02*
X173419047Y-80750057D01*
X173419047Y-80750057D02*
X173466666Y-80845295D01*
X173466666Y-80845295D02*
X173466666Y-80940533D01*
X173466666Y-80940533D02*
X173419047Y-81083390D01*
X173419047Y-81083390D02*
X172847619Y-81654819D01*
X172847619Y-81654819D02*
X173466666Y-81654819D01*
X177854819Y-89138094D02*
X176854819Y-89138094D01*
X176854819Y-89138094D02*
X176854819Y-88899999D01*
X176854819Y-88899999D02*
X176902438Y-88757142D01*
X176902438Y-88757142D02*
X176997676Y-88661904D01*
X176997676Y-88661904D02*
X177092914Y-88614285D01*
X177092914Y-88614285D02*
X177283390Y-88566666D01*
X177283390Y-88566666D02*
X177426247Y-88566666D01*
X177426247Y-88566666D02*
X177616723Y-88614285D01*
X177616723Y-88614285D02*
X177711961Y-88661904D01*
X177711961Y-88661904D02*
X177807200Y-88757142D01*
X177807200Y-88757142D02*
X177854819Y-88899999D01*
X177854819Y-88899999D02*
X177854819Y-89138094D01*
X176854819Y-88233332D02*
X176854819Y-87614285D01*
X176854819Y-87614285D02*
X177235771Y-87947618D01*
X177235771Y-87947618D02*
X177235771Y-87804761D01*
X177235771Y-87804761D02*
X177283390Y-87709523D01*
X177283390Y-87709523D02*
X177331009Y-87661904D01*
X177331009Y-87661904D02*
X177426247Y-87614285D01*
X177426247Y-87614285D02*
X177664342Y-87614285D01*
X177664342Y-87614285D02*
X177759580Y-87661904D01*
X177759580Y-87661904D02*
X177807200Y-87709523D01*
X177807200Y-87709523D02*
X177854819Y-87804761D01*
X177854819Y-87804761D02*
X177854819Y-88090475D01*
X177854819Y-88090475D02*
X177807200Y-88185713D01*
X177807200Y-88185713D02*
X177759580Y-88233332D01*
X152833333Y-98054819D02*
X152500000Y-97578628D01*
X152261905Y-98054819D02*
X152261905Y-97054819D01*
X152261905Y-97054819D02*
X152642857Y-97054819D01*
X152642857Y-97054819D02*
X152738095Y-97102438D01*
X152738095Y-97102438D02*
X152785714Y-97150057D01*
X152785714Y-97150057D02*
X152833333Y-97245295D01*
X152833333Y-97245295D02*
X152833333Y-97388152D01*
X152833333Y-97388152D02*
X152785714Y-97483390D01*
X152785714Y-97483390D02*
X152738095Y-97531009D01*
X152738095Y-97531009D02*
X152642857Y-97578628D01*
X152642857Y-97578628D02*
X152261905Y-97578628D01*
X153214286Y-97150057D02*
X153261905Y-97102438D01*
X153261905Y-97102438D02*
X153357143Y-97054819D01*
X153357143Y-97054819D02*
X153595238Y-97054819D01*
X153595238Y-97054819D02*
X153690476Y-97102438D01*
X153690476Y-97102438D02*
X153738095Y-97150057D01*
X153738095Y-97150057D02*
X153785714Y-97245295D01*
X153785714Y-97245295D02*
X153785714Y-97340533D01*
X153785714Y-97340533D02*
X153738095Y-97483390D01*
X153738095Y-97483390D02*
X153166667Y-98054819D01*
X153166667Y-98054819D02*
X153785714Y-98054819D01*
X168633333Y-85254819D02*
X168300000Y-84778628D01*
X168061905Y-85254819D02*
X168061905Y-84254819D01*
X168061905Y-84254819D02*
X168442857Y-84254819D01*
X168442857Y-84254819D02*
X168538095Y-84302438D01*
X168538095Y-84302438D02*
X168585714Y-84350057D01*
X168585714Y-84350057D02*
X168633333Y-84445295D01*
X168633333Y-84445295D02*
X168633333Y-84588152D01*
X168633333Y-84588152D02*
X168585714Y-84683390D01*
X168585714Y-84683390D02*
X168538095Y-84731009D01*
X168538095Y-84731009D02*
X168442857Y-84778628D01*
X168442857Y-84778628D02*
X168061905Y-84778628D01*
X169538095Y-84254819D02*
X169061905Y-84254819D01*
X169061905Y-84254819D02*
X169014286Y-84731009D01*
X169014286Y-84731009D02*
X169061905Y-84683390D01*
X169061905Y-84683390D02*
X169157143Y-84635771D01*
X169157143Y-84635771D02*
X169395238Y-84635771D01*
X169395238Y-84635771D02*
X169490476Y-84683390D01*
X169490476Y-84683390D02*
X169538095Y-84731009D01*
X169538095Y-84731009D02*
X169585714Y-84826247D01*
X169585714Y-84826247D02*
X169585714Y-85064342D01*
X169585714Y-85064342D02*
X169538095Y-85159580D01*
X169538095Y-85159580D02*
X169490476Y-85207200D01*
X169490476Y-85207200D02*
X169395238Y-85254819D01*
X169395238Y-85254819D02*
X169157143Y-85254819D01*
X169157143Y-85254819D02*
X169061905Y-85207200D01*
X169061905Y-85207200D02*
X169014286Y-85159580D01*
X183861905Y-101054819D02*
X183861905Y-100054819D01*
X183861905Y-100054819D02*
X184100000Y-100054819D01*
X184100000Y-100054819D02*
X184242857Y-100102438D01*
X184242857Y-100102438D02*
X184338095Y-100197676D01*
X184338095Y-100197676D02*
X184385714Y-100292914D01*
X184385714Y-100292914D02*
X184433333Y-100483390D01*
X184433333Y-100483390D02*
X184433333Y-100626247D01*
X184433333Y-100626247D02*
X184385714Y-100816723D01*
X184385714Y-100816723D02*
X184338095Y-100911961D01*
X184338095Y-100911961D02*
X184242857Y-101007200D01*
X184242857Y-101007200D02*
X184100000Y-101054819D01*
X184100000Y-101054819D02*
X183861905Y-101054819D01*
X184766667Y-100054819D02*
X185433333Y-100054819D01*
X185433333Y-100054819D02*
X185004762Y-101054819D01*
X147814285Y-82931009D02*
X147957142Y-82978628D01*
X147957142Y-82978628D02*
X148004761Y-83026247D01*
X148004761Y-83026247D02*
X148052380Y-83121485D01*
X148052380Y-83121485D02*
X148052380Y-83264342D01*
X148052380Y-83264342D02*
X148004761Y-83359580D01*
X148004761Y-83359580D02*
X147957142Y-83407200D01*
X147957142Y-83407200D02*
X147861904Y-83454819D01*
X147861904Y-83454819D02*
X147480952Y-83454819D01*
X147480952Y-83454819D02*
X147480952Y-82454819D01*
X147480952Y-82454819D02*
X147814285Y-82454819D01*
X147814285Y-82454819D02*
X147909523Y-82502438D01*
X147909523Y-82502438D02*
X147957142Y-82550057D01*
X147957142Y-82550057D02*
X148004761Y-82645295D01*
X148004761Y-82645295D02*
X148004761Y-82740533D01*
X148004761Y-82740533D02*
X147957142Y-82835771D01*
X147957142Y-82835771D02*
X147909523Y-82883390D01*
X147909523Y-82883390D02*
X147814285Y-82931009D01*
X147814285Y-82931009D02*
X147480952Y-82931009D01*
X148338095Y-82454819D02*
X148909523Y-82454819D01*
X148623809Y-83454819D02*
X148623809Y-82454819D01*
X149766666Y-83454819D02*
X149195238Y-83454819D01*
X149480952Y-83454819D02*
X149480952Y-82454819D01*
X149480952Y-82454819D02*
X149385714Y-82597676D01*
X149385714Y-82597676D02*
X149290476Y-82692914D01*
X149290476Y-82692914D02*
X149195238Y-82740533D01*
X179563333Y-104084819D02*
X179230000Y-103608628D01*
X178991905Y-104084819D02*
X178991905Y-103084819D01*
X178991905Y-103084819D02*
X179372857Y-103084819D01*
X179372857Y-103084819D02*
X179468095Y-103132438D01*
X179468095Y-103132438D02*
X179515714Y-103180057D01*
X179515714Y-103180057D02*
X179563333Y-103275295D01*
X179563333Y-103275295D02*
X179563333Y-103418152D01*
X179563333Y-103418152D02*
X179515714Y-103513390D01*
X179515714Y-103513390D02*
X179468095Y-103561009D01*
X179468095Y-103561009D02*
X179372857Y-103608628D01*
X179372857Y-103608628D02*
X178991905Y-103608628D01*
X180039524Y-104084819D02*
X180230000Y-104084819D01*
X180230000Y-104084819D02*
X180325238Y-104037200D01*
X180325238Y-104037200D02*
X180372857Y-103989580D01*
X180372857Y-103989580D02*
X180468095Y-103846723D01*
X180468095Y-103846723D02*
X180515714Y-103656247D01*
X180515714Y-103656247D02*
X180515714Y-103275295D01*
X180515714Y-103275295D02*
X180468095Y-103180057D01*
X180468095Y-103180057D02*
X180420476Y-103132438D01*
X180420476Y-103132438D02*
X180325238Y-103084819D01*
X180325238Y-103084819D02*
X180134762Y-103084819D01*
X180134762Y-103084819D02*
X180039524Y-103132438D01*
X180039524Y-103132438D02*
X179991905Y-103180057D01*
X179991905Y-103180057D02*
X179944286Y-103275295D01*
X179944286Y-103275295D02*
X179944286Y-103513390D01*
X179944286Y-103513390D02*
X179991905Y-103608628D01*
X179991905Y-103608628D02*
X180039524Y-103656247D01*
X180039524Y-103656247D02*
X180134762Y-103703866D01*
X180134762Y-103703866D02*
X180325238Y-103703866D01*
X180325238Y-103703866D02*
X180420476Y-103656247D01*
X180420476Y-103656247D02*
X180468095Y-103608628D01*
X180468095Y-103608628D02*
X180515714Y-103513390D01*
X181854819Y-89138094D02*
X180854819Y-89138094D01*
X180854819Y-89138094D02*
X180854819Y-88899999D01*
X180854819Y-88899999D02*
X180902438Y-88757142D01*
X180902438Y-88757142D02*
X180997676Y-88661904D01*
X180997676Y-88661904D02*
X181092914Y-88614285D01*
X181092914Y-88614285D02*
X181283390Y-88566666D01*
X181283390Y-88566666D02*
X181426247Y-88566666D01*
X181426247Y-88566666D02*
X181616723Y-88614285D01*
X181616723Y-88614285D02*
X181711961Y-88661904D01*
X181711961Y-88661904D02*
X181807200Y-88757142D01*
X181807200Y-88757142D02*
X181854819Y-88899999D01*
X181854819Y-88899999D02*
X181854819Y-89138094D01*
X181283390Y-87995237D02*
X181235771Y-88090475D01*
X181235771Y-88090475D02*
X181188152Y-88138094D01*
X181188152Y-88138094D02*
X181092914Y-88185713D01*
X181092914Y-88185713D02*
X181045295Y-88185713D01*
X181045295Y-88185713D02*
X180950057Y-88138094D01*
X180950057Y-88138094D02*
X180902438Y-88090475D01*
X180902438Y-88090475D02*
X180854819Y-87995237D01*
X180854819Y-87995237D02*
X180854819Y-87804761D01*
X180854819Y-87804761D02*
X180902438Y-87709523D01*
X180902438Y-87709523D02*
X180950057Y-87661904D01*
X180950057Y-87661904D02*
X181045295Y-87614285D01*
X181045295Y-87614285D02*
X181092914Y-87614285D01*
X181092914Y-87614285D02*
X181188152Y-87661904D01*
X181188152Y-87661904D02*
X181235771Y-87709523D01*
X181235771Y-87709523D02*
X181283390Y-87804761D01*
X181283390Y-87804761D02*
X181283390Y-87995237D01*
X181283390Y-87995237D02*
X181331009Y-88090475D01*
X181331009Y-88090475D02*
X181378628Y-88138094D01*
X181378628Y-88138094D02*
X181473866Y-88185713D01*
X181473866Y-88185713D02*
X181664342Y-88185713D01*
X181664342Y-88185713D02*
X181759580Y-88138094D01*
X181759580Y-88138094D02*
X181807200Y-88090475D01*
X181807200Y-88090475D02*
X181854819Y-87995237D01*
X181854819Y-87995237D02*
X181854819Y-87804761D01*
X181854819Y-87804761D02*
X181807200Y-87709523D01*
X181807200Y-87709523D02*
X181759580Y-87661904D01*
X181759580Y-87661904D02*
X181664342Y-87614285D01*
X181664342Y-87614285D02*
X181473866Y-87614285D01*
X181473866Y-87614285D02*
X181378628Y-87661904D01*
X181378628Y-87661904D02*
X181331009Y-87709523D01*
X181331009Y-87709523D02*
X181283390Y-87804761D01*
X151061905Y-105054819D02*
X151061905Y-104054819D01*
X151061905Y-104054819D02*
X151300000Y-104054819D01*
X151300000Y-104054819D02*
X151442857Y-104102438D01*
X151442857Y-104102438D02*
X151538095Y-104197676D01*
X151538095Y-104197676D02*
X151585714Y-104292914D01*
X151585714Y-104292914D02*
X151633333Y-104483390D01*
X151633333Y-104483390D02*
X151633333Y-104626247D01*
X151633333Y-104626247D02*
X151585714Y-104816723D01*
X151585714Y-104816723D02*
X151538095Y-104911961D01*
X151538095Y-104911961D02*
X151442857Y-105007200D01*
X151442857Y-105007200D02*
X151300000Y-105054819D01*
X151300000Y-105054819D02*
X151061905Y-105054819D01*
X152014286Y-104150057D02*
X152061905Y-104102438D01*
X152061905Y-104102438D02*
X152157143Y-104054819D01*
X152157143Y-104054819D02*
X152395238Y-104054819D01*
X152395238Y-104054819D02*
X152490476Y-104102438D01*
X152490476Y-104102438D02*
X152538095Y-104150057D01*
X152538095Y-104150057D02*
X152585714Y-104245295D01*
X152585714Y-104245295D02*
X152585714Y-104340533D01*
X152585714Y-104340533D02*
X152538095Y-104483390D01*
X152538095Y-104483390D02*
X151966667Y-105054819D01*
X151966667Y-105054819D02*
X152585714Y-105054819D01*
X167957142Y-93654819D02*
X167623809Y-93178628D01*
X167385714Y-93654819D02*
X167385714Y-92654819D01*
X167385714Y-92654819D02*
X167766666Y-92654819D01*
X167766666Y-92654819D02*
X167861904Y-92702438D01*
X167861904Y-92702438D02*
X167909523Y-92750057D01*
X167909523Y-92750057D02*
X167957142Y-92845295D01*
X167957142Y-92845295D02*
X167957142Y-92988152D01*
X167957142Y-92988152D02*
X167909523Y-93083390D01*
X167909523Y-93083390D02*
X167861904Y-93131009D01*
X167861904Y-93131009D02*
X167766666Y-93178628D01*
X167766666Y-93178628D02*
X167385714Y-93178628D01*
X168909523Y-93654819D02*
X168338095Y-93654819D01*
X168623809Y-93654819D02*
X168623809Y-92654819D01*
X168623809Y-92654819D02*
X168528571Y-92797676D01*
X168528571Y-92797676D02*
X168433333Y-92892914D01*
X168433333Y-92892914D02*
X168338095Y-92940533D01*
X169528571Y-92654819D02*
X169623809Y-92654819D01*
X169623809Y-92654819D02*
X169719047Y-92702438D01*
X169719047Y-92702438D02*
X169766666Y-92750057D01*
X169766666Y-92750057D02*
X169814285Y-92845295D01*
X169814285Y-92845295D02*
X169861904Y-93035771D01*
X169861904Y-93035771D02*
X169861904Y-93273866D01*
X169861904Y-93273866D02*
X169814285Y-93464342D01*
X169814285Y-93464342D02*
X169766666Y-93559580D01*
X169766666Y-93559580D02*
X169719047Y-93607200D01*
X169719047Y-93607200D02*
X169623809Y-93654819D01*
X169623809Y-93654819D02*
X169528571Y-93654819D01*
X169528571Y-93654819D02*
X169433333Y-93607200D01*
X169433333Y-93607200D02*
X169385714Y-93559580D01*
X169385714Y-93559580D02*
X169338095Y-93464342D01*
X169338095Y-93464342D02*
X169290476Y-93273866D01*
X169290476Y-93273866D02*
X169290476Y-93035771D01*
X169290476Y-93035771D02*
X169338095Y-92845295D01*
X169338095Y-92845295D02*
X169385714Y-92750057D01*
X169385714Y-92750057D02*
X169433333Y-92702438D01*
X169433333Y-92702438D02*
X169528571Y-92654819D01*
D13*
X178690000Y-87727064D02*
X178690000Y-86272936D01*
X180510000Y-87727064D02*
X180510000Y-86272936D01*
X161200000Y-85765000D02*
X159250000Y-85765000D01*
X161200000Y-85765000D02*
X163150000Y-85765000D01*
X161200000Y-94635000D02*
X159250000Y-94635000D01*
X161200000Y-94635000D02*
X163150000Y-94635000D01*
X158500000Y-85830000D02*
X158260000Y-85500000D01*
X158740000Y-85500000D01*
X158500000Y-85830000D01*
G36*
X158500000Y-85830000D02*
G01*
X158260000Y-85500000D01*
X158740000Y-85500000D01*
X158500000Y-85830000D01*
G37*
X178690000Y-98527064D02*
X178690000Y-97072936D01*
X180510000Y-98527064D02*
X180510000Y-97072936D01*
X169327064Y-89890000D02*
X167872936Y-89890000D01*
X169327064Y-91710000D02*
X167872936Y-91710000D01*
X153020000Y-90240000D02*
X153950000Y-90240000D01*
X153020000Y-91040000D02*
X153020000Y-90240000D01*
X153020000Y-91040000D02*
X153020000Y-91840000D01*
X156180000Y-90240000D02*
X155250000Y-90240000D01*
X156180000Y-90240000D02*
X156180000Y-91700000D01*
X152990000Y-92340000D02*
X152660000Y-92580000D01*
X152660000Y-92100000D01*
X152990000Y-92340000D01*
G36*
X152990000Y-92340000D02*
G01*
X152660000Y-92580000D01*
X152660000Y-92100000D01*
X152990000Y-92340000D01*
G37*
X158677064Y-83490000D02*
X157222936Y-83490000D01*
X158677064Y-85310000D02*
X157222936Y-85310000D01*
X152272936Y-80290000D02*
X153727064Y-80290000D01*
X152272936Y-82110000D02*
X153727064Y-82110000D01*
X162127064Y-95090000D02*
X160672936Y-95090000D01*
X162127064Y-96910000D02*
X160672936Y-96910000D01*
X172640000Y-85964000D02*
X172640000Y-86120000D01*
X172640000Y-88280000D02*
X172640000Y-88436000D01*
X172640000Y-85964484D02*
G75*
G02*
X175871397Y-86119939I1560000J-1235516D01*
G01*
X173159039Y-86120000D02*
G75*
G02*
X175240910Y-86119951I1040961J-1080000D01*
G01*
X175240910Y-88280049D02*
G75*
G02*
X173159039Y-88280000I-1040910J1080049D01*
G01*
X175871397Y-88280061D02*
G75*
G02*
X172640000Y-88435516I-1671397J1080061D01*
G01*
X154927064Y-99090000D02*
X153472936Y-99090000D01*
X154927064Y-100910000D02*
X153472936Y-100910000D01*
X183040000Y-91164000D02*
X183040000Y-91320000D01*
X183040000Y-93480000D02*
X183040000Y-93636000D01*
X183040000Y-91164484D02*
G75*
G02*
X186271397Y-91319939I1560000J-1235516D01*
G01*
X183559039Y-91320000D02*
G75*
G02*
X185640910Y-91319951I1040961J-1080000D01*
G01*
X185640910Y-93480049D02*
G75*
G02*
X183559039Y-93480000I-1040910J1080049D01*
G01*
X186271397Y-93480061D02*
G75*
G02*
X183040000Y-93635516I-1671397J1080061D01*
G01*
X175057064Y-100890000D02*
X173602936Y-100890000D01*
X175057064Y-102710000D02*
X173602936Y-102710000D01*
X159170000Y-97570000D02*
X159170000Y-97600000D01*
X159170000Y-102100000D02*
X159170000Y-99500000D01*
X159170000Y-104030000D02*
X159170000Y-104000000D01*
X165630000Y-97570000D02*
X159170000Y-97570000D01*
X165630000Y-97570000D02*
X165630000Y-97600000D01*
X165630000Y-102100000D02*
X165630000Y-99500000D01*
X165630000Y-104000000D02*
X165630000Y-104030000D01*
X165630000Y-104030000D02*
X159170000Y-104030000D01*
X172640000Y-96364000D02*
X172640000Y-96520000D01*
X172640000Y-98680000D02*
X172640000Y-98836000D01*
X172640000Y-96364484D02*
G75*
G02*
X175871397Y-96519939I1560000J-1235516D01*
G01*
X173159039Y-96520000D02*
G75*
G02*
X175240910Y-96519951I1040961J-1080000D01*
G01*
X175240910Y-98680049D02*
G75*
G02*
X173159039Y-98680000I-1040910J1080049D01*
G01*
X175871397Y-98680061D02*
G75*
G02*
X172640000Y-98835516I-1671397J1080061D01*
G01*
X183040000Y-85964000D02*
X183040000Y-86120000D01*
X183040000Y-88280000D02*
X183040000Y-88436000D01*
X183040000Y-85964484D02*
G75*
G02*
X186271397Y-86119939I1560000J-1235516D01*
G01*
X183559039Y-86120000D02*
G75*
G02*
X185640910Y-86119951I1040961J-1080000D01*
G01*
X185640910Y-88280049D02*
G75*
G02*
X183559039Y-88280000I-1040910J1080049D01*
G01*
X186271397Y-88280061D02*
G75*
G02*
X183040000Y-88435516I-1671397J1080061D01*
G01*
X152020000Y-86160000D02*
X152020000Y-84700000D01*
X152020000Y-86160000D02*
X152950000Y-86160000D01*
X155180000Y-85360000D02*
X155180000Y-84560000D01*
X155180000Y-85360000D02*
X155180000Y-86160000D01*
X155180000Y-86160000D02*
X154250000Y-86160000D01*
X155540000Y-84300000D02*
X155210000Y-84060000D01*
X155540000Y-83820000D01*
X155540000Y-84300000D01*
G36*
X155540000Y-84300000D02*
G01*
X155210000Y-84060000D01*
X155540000Y-83820000D01*
X155540000Y-84300000D01*
G37*
X156070000Y-82780000D02*
X156070000Y-81400000D01*
X157450000Y-82780000D02*
X156070000Y-82780000D01*
X158720000Y-80020000D02*
X171530000Y-80020000D01*
X158720000Y-82780000D02*
X158720000Y-80020000D01*
X158720000Y-82780000D02*
X171530000Y-82780000D01*
X171530000Y-82780000D02*
X171530000Y-80020000D01*
X172640000Y-91164000D02*
X172640000Y-91320000D01*
X172640000Y-93480000D02*
X172640000Y-93636000D01*
X172640000Y-91164484D02*
G75*
G02*
X175871397Y-91319939I1560000J-1235516D01*
G01*
X173159039Y-91320000D02*
G75*
G02*
X175240910Y-91319951I1040961J-1080000D01*
G01*
X175240910Y-93480049D02*
G75*
G02*
X173159039Y-93480000I-1040910J1080049D01*
G01*
X175871397Y-93480061D02*
G75*
G02*
X172640000Y-93635516I-1671397J1080061D01*
G01*
X154290000Y-96927064D02*
X154290000Y-95472936D01*
X156110000Y-96927064D02*
X156110000Y-95472936D01*
X169527064Y-85690000D02*
X168072936Y-85690000D01*
X169527064Y-87510000D02*
X168072936Y-87510000D01*
X183040000Y-96364000D02*
X183040000Y-96520000D01*
X183040000Y-98680000D02*
X183040000Y-98836000D01*
X183040000Y-96364484D02*
G75*
G02*
X186271397Y-96519939I1560000J-1235516D01*
G01*
X183559039Y-96520000D02*
G75*
G02*
X185640910Y-96519951I1040961J-1080000D01*
G01*
X185640910Y-98680049D02*
G75*
G02*
X183559039Y-98680000I-1040910J1080049D01*
G01*
X186271397Y-98680061D02*
G75*
G02*
X183040000Y-98835516I-1671397J1080061D01*
G01*
D10*
X137153092Y-97028248D02*
X137139561Y-88271752D01*
X139350000Y-84500001D02*
X140100000Y-84500000D01*
X139350000Y-100799999D02*
X140100000Y-100800000D01*
X140100000Y-84200000D02*
X142400000Y-84200000D01*
X140100000Y-84500000D02*
X140100000Y-84200000D01*
X140100000Y-101100000D02*
X140100000Y-100800000D01*
X140100000Y-101100000D02*
X142400000Y-101100000D01*
X147550000Y-84200000D02*
X147050000Y-84200000D01*
X147550000Y-84200000D02*
X151900000Y-88900000D01*
X147550000Y-101100000D02*
X147050000Y-101100000D01*
X147550000Y-101100000D02*
X151900000Y-96400000D01*
X151900000Y-96400000D02*
X151900000Y-88900000D01*
X136800000Y-87050000D02*
G75*
G02*
X139350000Y-84500000I2550000J0D01*
G01*
X136813531Y-98250000D02*
G75*
G02*
X137153092Y-97028248I2367727J2D01*
G01*
X137139561Y-88271752D02*
G75*
G02*
X136799995Y-87050000I2028139J1221752D01*
G01*
X139350000Y-100800000D02*
G75*
G02*
X136800000Y-98250000I1J2550001D01*
G01*
D13*
X180457064Y-100890000D02*
X179002936Y-100890000D01*
X180457064Y-102710000D02*
X179002936Y-102710000D01*
X177840000Y-91164000D02*
X177840000Y-91320000D01*
X177840000Y-93480000D02*
X177840000Y-93636000D01*
X177840000Y-91164484D02*
G75*
G02*
X181071397Y-91319939I1560000J-1235516D01*
G01*
X178359039Y-91320000D02*
G75*
G02*
X180440910Y-91319951I1040961J-1080000D01*
G01*
X180440910Y-93480049D02*
G75*
G02*
X178359039Y-93480000I-1040910J1080049D01*
G01*
X181071397Y-93480061D02*
G75*
G02*
X177840000Y-93635516I-1671397J1080061D01*
G01*
X153440000Y-101420000D02*
X153440000Y-102350000D01*
X153440000Y-101420000D02*
X154900000Y-101420000D01*
X153440000Y-104580000D02*
X153440000Y-103650000D01*
X154240000Y-104580000D02*
X153440000Y-104580000D01*
X154240000Y-104580000D02*
X155040000Y-104580000D01*
X155780000Y-104940000D02*
X155300000Y-104940000D01*
X155540000Y-104610000D01*
X155780000Y-104940000D01*
G36*
X155780000Y-104940000D02*
G01*
X155300000Y-104940000D01*
X155540000Y-104610000D01*
X155780000Y-104940000D01*
G37*
X169327064Y-93890000D02*
X167872936Y-93890000D01*
X169327064Y-95710000D02*
X167872936Y-95710000D01*
%LPC*%
D14*
X179600000Y-88550000D03*
X179600000Y-85450000D03*
D15*
X158725000Y-86390000D03*
X158725000Y-87660000D03*
X158725000Y-88930000D03*
X158725000Y-90200000D03*
X158725000Y-91470000D03*
X158725000Y-92740000D03*
X158725000Y-94010000D03*
X163675000Y-94010000D03*
X163675000Y-92740000D03*
X163675000Y-91470000D03*
X163675000Y-90200000D03*
X163675000Y-88930000D03*
X163675000Y-87660000D03*
X163675000Y-86390000D03*
D14*
X179600000Y-99350000D03*
X179600000Y-96250000D03*
D16*
X170150000Y-90800000D03*
X167050000Y-90800000D03*
D17*
X153650000Y-92500000D03*
X155550000Y-92500000D03*
X154600000Y-89500000D03*
D16*
X159500000Y-84400000D03*
X156400000Y-84400000D03*
D18*
X151450000Y-81200000D03*
X154550000Y-81200000D03*
D16*
X162950000Y-96000000D03*
X159850000Y-96000000D03*
D19*
X172930000Y-87200000D03*
D20*
X175470000Y-87200000D03*
D16*
X155750000Y-100000000D03*
X152650000Y-100000000D03*
D19*
X183330000Y-92400000D03*
D20*
X185870000Y-92400000D03*
D16*
X175880000Y-101800000D03*
X172780000Y-101800000D03*
D21*
X166380000Y-103050000D03*
X158420000Y-103050000D03*
X166380000Y-98550000D03*
X158420000Y-98550000D03*
D19*
X172930000Y-97600000D03*
D20*
X175470000Y-97600000D03*
D19*
X183330000Y-87200000D03*
D20*
X185870000Y-87200000D03*
D22*
X154550000Y-83900000D03*
X152650000Y-83900000D03*
X153600000Y-86900000D03*
D23*
X157450000Y-81400000D03*
D24*
X159990000Y-81400000D03*
X162530000Y-81400000D03*
X165070000Y-81400000D03*
X167610000Y-81400000D03*
X170150000Y-81400000D03*
D19*
X172930000Y-92400000D03*
D20*
X175470000Y-92400000D03*
D14*
X155200000Y-97750000D03*
X155200000Y-94650000D03*
D16*
X170350000Y-86600000D03*
X167250000Y-86600000D03*
D19*
X183330000Y-97600000D03*
D20*
X185870000Y-97600000D03*
D25*
X144800000Y-102700000D03*
X144800000Y-82600000D03*
D26*
X144350000Y-92650000D03*
D16*
X181280000Y-101800000D03*
X178180000Y-101800000D03*
D19*
X178130000Y-92400000D03*
D20*
X180670000Y-92400000D03*
D27*
X155700000Y-103950000D03*
X155700000Y-102050000D03*
X152700000Y-103000000D03*
D16*
X170150000Y-94800000D03*
X167050000Y-94800000D03*
%LPD*%
M02*
