G04 #@! TF.GenerationSoftware,KiCad,Pcbnew,9.0.1*
G04 #@! TF.CreationDate,2025-09-23T20:38:02+02:00*
G04 #@! TF.ProjectId,kostka-smd,6b6f7374-6b61-42d7-936d-642e6b696361,1*
G04 #@! TF.SameCoordinates,Original*
G04 #@! TF.FileFunction,Copper,L1,Top*
G04 #@! TF.FilePolarity,Positive*
%FSLAX46Y46*%
G04 Gerber Fmt 4.6, Leading zero omitted, Abs format (unit mm)*
G04 Created by KiCad (PCBNEW 9.0.1) date 2025-09-23 20:38:02*
%MOMM*%
%LPD*%
G01*
G04 APERTURE LIST*
G04 Aperture macros list*
%AMRoundRect*
0 Rectangle with rounded corners*
0 $1 Rounding radius*
0 $2 $3 $4 $5 $6 $7 $8 $9 X,Y pos of 4 corners*
0 Add a 4 corners polygon primitive as box body*
4,1,4,$2,$3,$4,$5,$6,$7,$8,$9,$2,$3,0*
0 Add four circle primitives for the rounded corners*
1,1,$1+$1,$2,$3*
1,1,$1+$1,$4,$5*
1,1,$1+$1,$6,$7*
1,1,$1+$1,$8,$9*
0 Add four rect primitives between the rounded corners*
20,1,$1+$1,$2,$3,$4,$5,0*
20,1,$1+$1,$4,$5,$6,$7,0*
20,1,$1+$1,$6,$7,$8,$9,0*
20,1,$1+$1,$8,$9,$2,$3,0*%
G04 Aperture macros list end*
%ADD10C,0.250000*%
G04 #@! TA.AperFunction,NonConductor*
%ADD11C,0.250000*%
G04 #@! TD*
G04 #@! TA.AperFunction,SMDPad,CuDef*
%ADD12RoundRect,0.250000X0.625000X-0.400000X0.625000X0.400000X-0.625000X0.400000X-0.625000X-0.400000X0*%
G04 #@! TD*
G04 #@! TA.AperFunction,SMDPad,CuDef*
%ADD13RoundRect,0.150000X-0.825000X-0.150000X0.825000X-0.150000X0.825000X0.150000X-0.825000X0.150000X0*%
G04 #@! TD*
G04 #@! TA.AperFunction,SMDPad,CuDef*
%ADD14RoundRect,0.250000X0.400000X0.625000X-0.400000X0.625000X-0.400000X-0.625000X0.400000X-0.625000X0*%
G04 #@! TD*
G04 #@! TA.AperFunction,SMDPad,CuDef*
%ADD15RoundRect,0.200000X0.200000X-0.750000X0.200000X0.750000X-0.200000X0.750000X-0.200000X-0.750000X0*%
G04 #@! TD*
G04 #@! TA.AperFunction,SMDPad,CuDef*
%ADD16RoundRect,0.250000X-0.400000X-0.625000X0.400000X-0.625000X0.400000X0.625000X-0.400000X0.625000X0*%
G04 #@! TD*
G04 #@! TA.AperFunction,ComponentPad*
%ADD17R,1.800000X1.800000*%
G04 #@! TD*
G04 #@! TA.AperFunction,ComponentPad*
%ADD18C,1.800000*%
G04 #@! TD*
G04 #@! TA.AperFunction,SMDPad,CuDef*
%ADD19R,1.550000X1.300000*%
G04 #@! TD*
G04 #@! TA.AperFunction,SMDPad,CuDef*
%ADD20RoundRect,0.200000X-0.200000X0.750000X-0.200000X-0.750000X0.200000X-0.750000X0.200000X0.750000X0*%
G04 #@! TD*
G04 #@! TA.AperFunction,ComponentPad*
%ADD21R,1.700000X1.700000*%
G04 #@! TD*
G04 #@! TA.AperFunction,ComponentPad*
%ADD22C,1.700000*%
G04 #@! TD*
G04 #@! TA.AperFunction,SMDPad,CuDef*
%ADD23RoundRect,0.600000X1.400000X-1.400000X1.400000X1.400000X-1.400000X1.400000X-1.400000X-1.400000X0*%
G04 #@! TD*
G04 #@! TA.AperFunction,SMDPad,CuDef*
%ADD24C,13.000000*%
G04 #@! TD*
G04 #@! TA.AperFunction,SMDPad,CuDef*
%ADD25RoundRect,0.200000X0.750000X0.200000X-0.750000X0.200000X-0.750000X-0.200000X0.750000X-0.200000X0*%
G04 #@! TD*
G04 #@! TA.AperFunction,ViaPad*
%ADD26C,0.700000*%
G04 #@! TD*
G04 #@! TA.AperFunction,Conductor*
%ADD27C,0.500000*%
G04 #@! TD*
G04 #@! TA.AperFunction,Conductor*
%ADD28C,0.200000*%
G04 #@! TD*
G04 APERTURE END LIST*
D10*
D11*
X175278758Y-80440142D02*
X175964473Y-80440142D01*
X175621615Y-81640142D02*
X175621615Y-80440142D01*
X176593044Y-80440142D02*
X176821616Y-80440142D01*
X176821616Y-80440142D02*
X176935901Y-80497285D01*
X176935901Y-80497285D02*
X177050187Y-80611571D01*
X177050187Y-80611571D02*
X177107330Y-80840142D01*
X177107330Y-80840142D02*
X177107330Y-81240142D01*
X177107330Y-81240142D02*
X177050187Y-81468714D01*
X177050187Y-81468714D02*
X176935901Y-81583000D01*
X176935901Y-81583000D02*
X176821616Y-81640142D01*
X176821616Y-81640142D02*
X176593044Y-81640142D01*
X176593044Y-81640142D02*
X176478759Y-81583000D01*
X176478759Y-81583000D02*
X176364473Y-81468714D01*
X176364473Y-81468714D02*
X176307330Y-81240142D01*
X176307330Y-81240142D02*
X176307330Y-80840142D01*
X176307330Y-80840142D02*
X176364473Y-80611571D01*
X176364473Y-80611571D02*
X176478759Y-80497285D01*
X176478759Y-80497285D02*
X176593044Y-80440142D01*
X177621616Y-81640142D02*
X177621616Y-80440142D01*
X177621616Y-80440142D02*
X178078759Y-80440142D01*
X178078759Y-80440142D02*
X178193044Y-80497285D01*
X178193044Y-80497285D02*
X178250187Y-80554428D01*
X178250187Y-80554428D02*
X178307330Y-80668714D01*
X178307330Y-80668714D02*
X178307330Y-80840142D01*
X178307330Y-80840142D02*
X178250187Y-80954428D01*
X178250187Y-80954428D02*
X178193044Y-81011571D01*
X178193044Y-81011571D02*
X178078759Y-81068714D01*
X178078759Y-81068714D02*
X177621616Y-81068714D01*
D12*
X179600000Y-88550000D03*
X179600000Y-85450000D03*
D13*
X158725000Y-86390000D03*
X158725000Y-87660000D03*
X158725000Y-88930000D03*
X158725000Y-90200000D03*
X158725000Y-91470000D03*
X158725000Y-92740000D03*
X158725000Y-94010000D03*
X163675000Y-94010000D03*
X163675000Y-92740000D03*
X163675000Y-91470000D03*
X163675000Y-90200000D03*
X163675000Y-88930000D03*
X163675000Y-87660000D03*
X163675000Y-86390000D03*
D12*
X179600000Y-99350000D03*
X179600000Y-96250000D03*
D14*
X170150000Y-90800000D03*
X167050000Y-90800000D03*
D15*
X153650000Y-92500000D03*
X155550000Y-92500000D03*
X154600000Y-89500000D03*
D14*
X159500000Y-84400000D03*
X156400000Y-84400000D03*
D16*
X151450000Y-81200000D03*
X154550000Y-81200000D03*
D14*
X162950000Y-96000000D03*
X159850000Y-96000000D03*
D17*
X172930000Y-87200000D03*
D18*
X175470000Y-87200000D03*
D14*
X155750000Y-100000000D03*
X152650000Y-100000000D03*
D17*
X183330000Y-92400000D03*
D18*
X185870000Y-92400000D03*
D14*
X175880000Y-101800000D03*
X172780000Y-101800000D03*
D19*
X166380000Y-103050000D03*
X158420000Y-103050000D03*
X166380000Y-98550000D03*
X158420000Y-98550000D03*
D17*
X172930000Y-97600000D03*
D18*
X175470000Y-97600000D03*
D17*
X183330000Y-87200000D03*
D18*
X185870000Y-87200000D03*
D20*
X154550000Y-83900000D03*
X152650000Y-83900000D03*
X153600000Y-86900000D03*
D21*
X157450000Y-81400000D03*
D22*
X159990000Y-81400000D03*
X162530000Y-81400000D03*
X165070000Y-81400000D03*
X167610000Y-81400000D03*
X170150000Y-81400000D03*
D17*
X172930000Y-92400000D03*
D18*
X175470000Y-92400000D03*
D12*
X155200000Y-97750000D03*
X155200000Y-94650000D03*
D14*
X170350000Y-86600000D03*
X167250000Y-86600000D03*
D17*
X183330000Y-97600000D03*
D18*
X185870000Y-97600000D03*
D23*
X144800000Y-102700000D03*
X144800000Y-82600000D03*
D24*
X144350000Y-92650000D03*
D14*
X181280000Y-101800000D03*
X178180000Y-101800000D03*
D17*
X178130000Y-92400000D03*
D18*
X180670000Y-92400000D03*
D25*
X155700000Y-103950000D03*
X155700000Y-102050000D03*
X152700000Y-103000000D03*
D14*
X170150000Y-94800000D03*
X167050000Y-94800000D03*
D26*
X163800000Y-85400000D03*
X149731574Y-101800000D03*
X164400000Y-95400000D03*
X155400000Y-91000000D03*
X158420000Y-100600000D03*
X154400000Y-103000000D03*
X161000000Y-84000000D03*
X163600000Y-84000000D03*
X166000000Y-94400000D03*
X166200000Y-88200000D03*
X165400000Y-95400000D03*
X165200000Y-87000000D03*
D27*
X150900000Y-102700000D02*
X145100000Y-102700000D01*
X151000000Y-96800000D02*
X151000000Y-102600000D01*
D28*
X158420000Y-103980000D02*
X157400000Y-105000000D01*
D27*
X151400000Y-89400000D02*
X151400000Y-96400000D01*
X145800000Y-81200000D02*
X151450000Y-81200000D01*
X151000000Y-84600000D02*
X151000000Y-89000000D01*
X151450000Y-84150000D02*
X151000000Y-84600000D01*
X151550000Y-83900000D02*
X151450000Y-84000000D01*
D28*
X158420000Y-103050000D02*
X158420000Y-103980000D01*
D27*
X151400000Y-96400000D02*
X151000000Y-96800000D01*
X151450000Y-84000000D02*
X151450000Y-81200000D01*
D28*
X158420000Y-103050000D02*
X166380000Y-103050000D01*
D27*
X151450000Y-84000000D02*
X151450000Y-84150000D01*
X152650000Y-83900000D02*
X151550000Y-83900000D01*
X151000000Y-102600000D02*
X150900000Y-102700000D01*
D28*
X152000000Y-105000000D02*
X151000000Y-104000000D01*
D27*
X145100000Y-81900000D02*
X145800000Y-81200000D01*
X145100000Y-102700000D02*
X144400000Y-102000000D01*
X144400000Y-81900000D02*
X145100000Y-81900000D01*
D28*
X157400000Y-105000000D02*
X152000000Y-105000000D01*
X151000000Y-104000000D02*
X151000000Y-102600000D01*
D27*
X151000000Y-89000000D02*
X151400000Y-89400000D01*
D28*
X163675000Y-86390000D02*
X163675000Y-85525000D01*
X155550000Y-92500000D02*
X155550000Y-91150000D01*
X163800000Y-96000000D02*
X162950000Y-96000000D01*
D27*
X149731574Y-101800000D02*
X149600000Y-101668426D01*
X149600000Y-97600000D02*
X144650000Y-92650000D01*
D28*
X164400000Y-95400000D02*
X163800000Y-96000000D01*
D27*
X149600000Y-101668426D02*
X149600000Y-97600000D01*
D28*
X163675000Y-85525000D02*
X163800000Y-85400000D01*
X155550000Y-91150000D02*
X155400000Y-91000000D01*
D27*
X144650000Y-92650000D02*
X143950000Y-92650000D01*
D28*
X175470000Y-87200000D02*
X175470000Y-86270000D01*
X171350000Y-85600000D02*
X170350000Y-86600000D01*
X175470000Y-86270000D02*
X174800000Y-85600000D01*
X174800000Y-85600000D02*
X171350000Y-85600000D01*
X170150000Y-85800000D02*
X170150000Y-86350000D01*
X154700000Y-102050000D02*
X152650000Y-100000000D01*
X156250000Y-101950000D02*
X155500000Y-101950000D01*
X155700000Y-102050000D02*
X154700000Y-102050000D01*
X158420000Y-100600000D02*
X158420000Y-98550000D01*
X166380000Y-98550000D02*
X158420000Y-98550000D01*
X158420000Y-100694064D02*
X158420000Y-100600000D01*
X152700000Y-103000000D02*
X154400000Y-103000000D01*
X157000000Y-102650000D02*
X157000000Y-96000000D01*
X155700000Y-103950000D02*
X157000000Y-102650000D01*
X157470000Y-88930000D02*
X157000000Y-89400000D01*
X159850000Y-96000000D02*
X157000000Y-96000000D01*
X158725000Y-88930000D02*
X157470000Y-88930000D01*
X157000000Y-89400000D02*
X157000000Y-96000000D01*
X170730000Y-91000000D02*
X174070000Y-91000000D01*
X174070000Y-91000000D02*
X175470000Y-92400000D01*
X170150000Y-90800000D02*
X170150000Y-90250000D01*
X175470000Y-96340000D02*
X173930000Y-94800000D01*
X175470000Y-97600000D02*
X175470000Y-96340000D01*
X173930000Y-94800000D02*
X170150000Y-94800000D01*
X179600000Y-88550000D02*
X184520000Y-88550000D01*
X184520000Y-88550000D02*
X185870000Y-87200000D01*
X184600000Y-98600000D02*
X184600000Y-93670000D01*
X184600000Y-93670000D02*
X185870000Y-92400000D01*
X183800000Y-99400000D02*
X184600000Y-98600000D01*
X183600000Y-99400000D02*
X183800000Y-99400000D01*
X181280000Y-101720000D02*
X183600000Y-99400000D01*
X181280000Y-101800000D02*
X181280000Y-101720000D01*
X185870000Y-98530000D02*
X185870000Y-97600000D01*
X181600000Y-103400000D02*
X182800000Y-102200000D01*
X180800000Y-103400000D02*
X181600000Y-103400000D01*
X182800000Y-101600000D02*
X185870000Y-98530000D01*
X182800000Y-102200000D02*
X182800000Y-101600000D01*
X179600000Y-102200000D02*
X180800000Y-103400000D01*
X179600000Y-99350000D02*
X179600000Y-102200000D01*
X181070000Y-92800000D02*
X180670000Y-92400000D01*
X178800000Y-97800000D02*
X175880000Y-100720000D01*
X180600000Y-97800000D02*
X178800000Y-97800000D01*
X175880000Y-100720000D02*
X175880000Y-101800000D01*
X181070000Y-97330000D02*
X181070000Y-92800000D01*
X181070000Y-97330000D02*
X180600000Y-97800000D01*
X159800000Y-84600000D02*
X159800000Y-83200000D01*
X159800000Y-83200000D02*
X159990000Y-83010000D01*
X160599000Y-89300999D02*
X160599000Y-85399000D01*
X159699999Y-90200000D02*
X160599000Y-89300999D01*
X158725000Y-90200000D02*
X159699999Y-90200000D01*
X160599000Y-85399000D02*
X159800000Y-84600000D01*
X159990000Y-83010000D02*
X159990000Y-81600000D01*
X165210000Y-84000000D02*
X163600000Y-84000000D01*
X161000000Y-84000000D02*
X161000000Y-92709999D01*
X167610000Y-81600000D02*
X165210000Y-84000000D01*
X159699999Y-94010000D02*
X158725000Y-94010000D01*
X161000000Y-92709999D02*
X159699999Y-94010000D01*
D27*
X156400000Y-84400000D02*
X157450000Y-84400000D01*
X157450000Y-84400000D02*
X157450000Y-86340000D01*
X158725000Y-86390000D02*
X157400000Y-86390000D01*
X157400000Y-86390000D02*
X156210000Y-86390000D01*
X157450000Y-81600000D02*
X157450000Y-84400000D01*
X155700000Y-86900000D02*
X153600000Y-86900000D01*
X156210000Y-86390000D02*
X155700000Y-86900000D01*
X157450000Y-86340000D02*
X157400000Y-86390000D01*
D28*
X161800000Y-91839999D02*
X161800000Y-85000000D01*
X161800000Y-85000000D02*
X162530000Y-84270000D01*
X162530000Y-84270000D02*
X162530000Y-81600000D01*
X163675000Y-92740000D02*
X162700001Y-92740000D01*
X162700001Y-92740000D02*
X161800000Y-91839999D01*
X161800000Y-84200000D02*
X161800000Y-83400000D01*
X161800000Y-83400000D02*
X161200000Y-82800000D01*
X163670000Y-80200000D02*
X165070000Y-81600000D01*
X161200000Y-82800000D02*
X161200000Y-80600000D01*
X161600000Y-80200000D02*
X163670000Y-80200000D01*
X162700001Y-94010000D02*
X161400000Y-92709999D01*
X161400000Y-84600000D02*
X161800000Y-84200000D01*
X163675000Y-94010000D02*
X162700001Y-94010000D01*
X161200000Y-80600000D02*
X161600000Y-80200000D01*
X161400000Y-92709999D02*
X161400000Y-84600000D01*
X152600000Y-88500000D02*
X152600000Y-86000000D01*
X154550000Y-81200000D02*
X154550000Y-83900000D01*
X153400000Y-85200000D02*
X154400000Y-85200000D01*
X154550000Y-85050000D02*
X154550000Y-83900000D01*
X154400000Y-89500000D02*
X153600000Y-89500000D01*
X152600000Y-86000000D02*
X153400000Y-85200000D01*
X154400000Y-85200000D02*
X154550000Y-85050000D01*
X153600000Y-89500000D02*
X152600000Y-88500000D01*
X155750000Y-98300000D02*
X155200000Y-97750000D01*
X153650000Y-92500000D02*
X153650000Y-96200000D01*
X153650000Y-96200000D02*
X155200000Y-97750000D01*
X155750000Y-100000000D02*
X155750000Y-98300000D01*
X157340000Y-87660000D02*
X156600000Y-88400000D01*
X156600000Y-94000000D02*
X155950000Y-94650000D01*
X158725000Y-87660000D02*
X157340000Y-87660000D01*
X155950000Y-94650000D02*
X155200000Y-94650000D01*
X156600000Y-88400000D02*
X156600000Y-94000000D01*
X171400000Y-88400000D02*
X167200000Y-88400000D01*
X165400000Y-90200000D02*
X167200000Y-88400000D01*
X178800000Y-90000000D02*
X177200000Y-90000000D01*
X179400000Y-96050000D02*
X179400000Y-90600000D01*
X163675000Y-90200000D02*
X165400000Y-90200000D01*
X179400000Y-90600000D02*
X178800000Y-90000000D01*
X167250000Y-88350000D02*
X167250000Y-86600000D01*
X167200000Y-88400000D02*
X167250000Y-88350000D01*
X172000000Y-89000000D02*
X171400000Y-88400000D01*
X176200000Y-89000000D02*
X172000000Y-89000000D01*
X179600000Y-96250000D02*
X179400000Y-96050000D01*
X177200000Y-90000000D02*
X176200000Y-89000000D01*
X179600000Y-96250000D02*
X179250000Y-96250000D01*
X166400000Y-84200000D02*
X178350000Y-84200000D01*
X167050000Y-94800000D02*
X166400000Y-94800000D01*
X165600000Y-88200000D02*
X164870000Y-88930000D01*
X166200000Y-88200000D02*
X166200000Y-84400000D01*
X166400000Y-94800000D02*
X166000000Y-94400000D01*
X164870000Y-88930000D02*
X163675000Y-88930000D01*
X166200000Y-84400000D02*
X166400000Y-84200000D01*
X178350000Y-84200000D02*
X179600000Y-85450000D01*
X166200000Y-88200000D02*
X165600000Y-88200000D01*
X172780000Y-101800000D02*
X172780000Y-99780000D01*
X166800000Y-96800000D02*
X165400000Y-95400000D01*
X171400000Y-98400000D02*
X171400000Y-97400000D01*
X171400000Y-97400000D02*
X170800000Y-96800000D01*
X163675000Y-87660000D02*
X164740000Y-87660000D01*
X164740000Y-87660000D02*
X165200000Y-87200000D01*
X172780000Y-99780000D02*
X171400000Y-98400000D01*
X165200000Y-87200000D02*
X165200000Y-87000000D01*
X170800000Y-96800000D02*
X166800000Y-96800000D01*
X178180000Y-101800000D02*
X178180000Y-102420000D01*
X165800000Y-90800000D02*
X167050000Y-90800000D01*
X173732000Y-96000000D02*
X169400000Y-96000000D01*
X163675000Y-91470000D02*
X165130000Y-91470000D01*
X169400000Y-96000000D02*
X168600000Y-95200000D01*
X174131000Y-102131000D02*
X174131000Y-96399000D01*
X165130000Y-91470000D02*
X165800000Y-90800000D01*
X175200000Y-103200000D02*
X174131000Y-102131000D01*
X178180000Y-102420000D02*
X177400000Y-103200000D01*
X177400000Y-103200000D02*
X175200000Y-103200000D01*
X174131000Y-96399000D02*
X173732000Y-96000000D01*
X168600000Y-95200000D02*
X168600000Y-92350000D01*
X168600000Y-92350000D02*
X167050000Y-90800000D01*
M02*
